<?xml version="1.0" standalone="no"?><!DOCTYPE svg PUBLIC "-//W3C//DTD SVG 1.1//EN" "http://www.w3.org/Graphics/SVG/1.1/DTD/svg11.dtd"><svg t="1649229229934" class="icon" viewBox="0 0 1095 1024" version="1.1" xmlns="http://www.w3.org/2000/svg" p-id="4508" xmlns:xlink="http://www.w3.org/1999/xlink" width="213.8671875" height="200"><defs><style type="text/css">@font-face { font-family: feedback-iconfont; src: url("//at.alicdn.com/t/font_1031158_u69w8yhxdu.woff2?t=1630033759944") format("woff2"), url("//at.alicdn.com/t/font_1031158_u69w8yhxdu.woff?t=1630033759944") format("woff"), url("//at.alicdn.com/t/font_1031158_u69w8yhxdu.ttf?t=1630033759944") format("truetype"); }
</style></defs><path d="M356.493513 517.763164m133.518834 0l137.508441 0q133.518834 0 133.518834 133.518834l0-0.088658q0 133.518834-133.518834 133.518834l-137.508441 0q-133.518834 0-133.518834-133.518834l0 0.088658q0-133.518834 133.518834-133.518834Z" fill="#50BC6C" p-id="4509"></path><path d="M829.838171 673.091847L722.473424 816.097079c-19.416085 25.710798-23.583008 95.6619-25.444824 127.933385v4.69887l-3.546317 47.343331a27.217983 27.217983 0 0 1-3.191685 10.993583 29.434431 29.434431 0 0 1-26.597377 16.66769l-188.398089-0.797922a29.700405 29.700405 0 0 1-29.523089-26.597377l-0.531948-4.166922-6.915318-61.173968-5.585449-47.697963c-18.440848-67.91197-131.657017-212.779018-131.657017-212.779019l48.495884-47.786621 107.808036 118.446987a36.970354 36.970354 0 0 0 34.133301 15.603795c22.519113-3.103027 25.533482-28.459194 25.17885-44.328962a98.764928 98.764928 0 0 1 3.01437-17.731585A531.947545 531.947545 0 0 1 558.544923 582.572107l7.713239-15.781111L656.068639 571.401208l-17.199637 144.77839c3.191685 58.51423 49.205148 36.172433 49.205148 36.172434L800.581056 645.430575z" fill="#9FE87D" p-id="4510"></path><path d="M1095.10268 465.454989a254.004953 254.004953 0 0 1-438.324777 175.010742A213.842913 213.842913 0 0 1 407.826451 639.66781 216.945941 216.945941 0 0 1 5.940081 486.378259a216.945941 216.945941 0 0 0 406.673898 77.930315 213.842913 213.842913 0 0 0 248.862794 0.797922A254.004953 254.004953 0 0 0 1094.216101 443.733797c0.531948 6.82666 0.886579 14.273926 0.886579 21.721192z" fill="#2C8940" p-id="4511"></path><path d="M1094.216101 443.733797a254.004953 254.004953 0 0 1-432.739328 121.372699 213.842913 213.842913 0 0 1-248.862794-0.797922A216.945941 216.945941 0 0 1 5.940081 486.378259a216.413993 216.413993 0 0 1 71.458287-115.255302 159.584264 159.584264 0 0 1 159.584263-150.009207 150.718471 150.718471 0 0 1 29.700405 2.837053A253.384347 253.384347 0 0 1 725.044504 106.833685a214.640835 214.640835 0 0 1 305.692523 189.373326A254.448243 254.448243 0 0 1 1094.216101 443.733797z" fill="#37A052" p-id="4512"></path><path d="M697.0286 944.296437v4.69887l-3.546317 47.343332a27.217983 27.217983 0 0 1-3.191685 10.993583 29.434431 29.434431 0 0 1-26.597377 16.667689l-188.398089-0.797921a29.700405 29.700405 0 0 1-29.523089-26.597377l-0.531948-4.166923-6.915318-61.173967a197.884487 197.884487 0 0 1 122.525252-39.896066c55.765834 0.354632 105.591588 21.100586 136.178571 52.92878z" fill="#B6F98F" p-id="4513"></path><path d="M690.113282 1007.332222a29.434431 29.434431 0 0 1-26.597377 16.667689l-188.398089-0.797921a29.700405 29.700405 0 0 1-29.523089-26.597377l-0.531947-4.166923a201.60812 201.60812 0 0 1 113.482143-32.980747 191.589774 191.589774 0 0 1 131.568359 47.875279z" fill="#FAFBF5" p-id="4514"></path><path d="M146.374233 472.281649m-15.869769 0a15.869768 15.869768 0 1 0 31.739537 0 15.869768 15.869768 0 1 0-31.739537 0Z" fill="#2B8E3E" p-id="4515"></path><path d="M149.565918 537.356565m-15.869768 0a15.869768 15.869768 0 1 0 31.739537 0 15.869768 15.869768 0 1 0-31.739537 0Z" fill="#2B8E3E" p-id="4516"></path><path d="M206.750279 494.623446m-15.869768 0a15.869768 15.869768 0 1 0 31.739537 0 15.869768 15.869768 0 1 0-31.739537 0Z" fill="#2B8E3E" p-id="4517"></path><path d="M197.175223 580.267001m-15.869768 0a15.869768 15.869768 0 1 0 31.739537 0 15.869768 15.869768 0 1 0-31.739537 0Z" fill="#2B8E3E" p-id="4518"></path><path d="M238.401158 554.822176m-15.869768 0a15.869768 15.869768 0 1 0 31.739537 0 15.869768 15.869768 0 1 0-31.739537 0Z" fill="#2B8E3E" p-id="4519"></path><path d="M427.419853 189.462871m-15.869769 0a15.869768 15.869768 0 1 0 31.739537 0 15.869768 15.869768 0 1 0-31.739537 0Z" fill="#2B8E3E" p-id="4520"></path><path d="M316.154158 516.787927m-15.869769 0a15.869768 15.869768 0 1 0 31.739537 0 15.869768 15.869768 0 1 0-31.739537 0Z" fill="#2B8E3E" p-id="4521"></path><path d="M798.541923 516.521953m-15.869768 0a15.869768 15.869768 0 1 0 31.739537 0 15.869768 15.869768 0 1 0-31.739537 0Z" fill="#2B8E3E" p-id="4522"></path><path d="M923.283623 479.551599m-15.869769 0a15.869768 15.869768 0 1 0 31.739537 0 15.869768 15.869768 0 1 0-31.739537 0Z" fill="#2B8E3E" p-id="4523"></path><path d="M966.460032 384.067014m-15.869768 0a15.869768 15.869768 0 1 0 31.739536 0 15.869768 15.869768 0 1 0-31.739536 0Z" fill="#2B8E3E" p-id="4524"></path><path d="M862.818919 554.999492m-15.869769 0a15.869768 15.869768 0 1 0 31.739537 0 15.869768 15.869768 0 1 0-31.739537 0Z" fill="#2B8E3E" p-id="4525"></path><path d="M925.943361 579.646395m-15.869769 0a15.869768 15.869768 0 1 0 31.739537 0 15.869768 15.869768 0 1 0-31.739537 0Z" fill="#2B8E3E" p-id="4526"></path><path d="M946.866631 527.33822m-15.869769 0a15.869768 15.869768 0 1 0 31.739537 0 15.869768 15.869768 0 1 0-31.739537 0Z" fill="#2B8E3E" p-id="4527"></path><path d="M986.496723 558.10252m-15.869769 0a15.869768 15.869768 0 1 0 31.739537 0 15.869768 15.869768 0 1 0-31.739537 0Z" fill="#2B8E3E" p-id="4528"></path><path d="M1021.871235 476.448571m-15.869769 0a15.869768 15.869768 0 1 0 31.739537 0 15.869768 15.869768 0 1 0-31.739537 0Z" fill="#2B8E3E" p-id="4529"></path><path d="M497.193639 198.240005m-15.869768 0a15.869768 15.869768 0 1 0 31.739536 0 15.869768 15.869768 0 1 0-31.739536 0Z" fill="#2B8E3E" p-id="4530"></path><path d="M492.583427 146.375119m-15.869768 0a15.869768 15.869768 0 1 0 31.739536 0 15.869768 15.869768 0 1 0-31.739536 0Z" fill="#2B8E3E" p-id="4531"></path><path d="M450.116281 260.8325m-15.869768 0a15.869768 15.869768 0 1 0 31.739537 0 15.869768 15.869768 0 1 0-31.739537 0Z" fill="#2B8E3E" p-id="4532"></path><path d="M558.278949 262.251026m-15.869769 0a15.869768 15.869768 0 1 0 31.739537 0 15.869768 15.869768 0 1 0-31.739537 0Z" fill="#2B8E3E" p-id="4533"></path><path d="M212.779018 262.96029a145.044364 145.044364 0 0 0-92.824847 97.523716 23.405692 23.405692 0 0 0 16.135743 28.459194 23.671666 23.671666 0 0 0 28.547851-16.2244c0.620605-2.216448 1.329869-4.521554 2.12779-6.82666s4.166922-8.865792 0.620606-2.216448c1.950474-3.900949 3.723633-7.890555 5.940081-11.791504a125.539621 125.539621 0 0 1 7.801897-11.96882c2.393764-3.280343-3.546317 4.25558-0.709263 0.886579l1.861816-2.305106 4.787528-5.319475a111.265695 111.265695 0 0 1 10.018346-9.39774 22.253139 22.253139 0 0 1 2.748395-2.305106l-2.748395 2.12779 1.861816-1.418527c1.773158-1.329869 3.546317-2.57108 5.408133-3.723633a121.195382 121.195382 0 0 1 11.880162-6.82666l3.280343-1.507184c1.684501-0.797921 5.496791-1.773158-1.152553 0l6.738003-2.57108a23.139718 23.139718 0 0 0-12.323452-44.328962zM73.05413 482.654626c29.789063 0 29.87772-46.279436 0-46.279436s-29.87772 46.279436 0 46.279436z" fill="#FFFFFF" p-id="4534"></path></svg>