<svg width="58" height="40" viewBox="0 0 58 40" fill="none" xmlns="http://www.w3.org/2000/svg">
<rect x="0.5" y="0.5" width="57" height="39" rx="5.5" stroke="#DFDFDF"/>
<path d="M17.9628 9H26.8371C28.0758 9 28.8447 10.0442 28.5575 11.3278L24.4255 29.6539C24.1323 30.9345 22.8936 31.9787 21.6549 31.9787H12.7806C11.7334 31.9787 11.0183 31.2277 11.0003 30.2194C10.9973 30.0399 11.0153 29.8484 11.0602 29.6539L15.1951 11.3278C15.4824 10.0442 16.7241 9 17.9628 9Z" fill="#E21836"/>
<path d="M25.9365 9H36.253C37.5246 9 36.9502 10.0442 36.651 11.3278L32.4202 29.6569C32.121 30.9345 32.2138 31.9787 30.9422 31.9787H20.4821C19.4169 31.9787 18.6928 31.2487 18.6599 30.2583C18.6539 30.0668 18.6749 29.8634 18.7228 29.6539L23.0971 11.3278C23.3993 10.0442 24.5243 9 25.7959 9" fill="#00447C"/>
<path d="M35.7205 9H44.4542C45.3578 9 46.0161 9.55652 46.1896 10.3584C46.2225 10.514 46.2375 10.6785 46.2345 10.8521C46.2285 11.0047 46.2105 11.1632 46.1746 11.3278L42.0427 29.6539C41.7494 30.9345 40.5077 31.9787 39.2691 31.9787H30.3977C29.3625 31.9787 28.6534 31.2487 28.6204 30.2613C28.6115 30.0698 28.6324 29.8664 28.6773 29.6569L32.9499 11.3278C33.2401 10.0442 34.4788 9 35.7205 9Z" fill="#007B84"/>
<path fill-rule="evenodd" clip-rule="evenodd" d="M17.6934 18.5505C17.9507 18.2872 18.0644 17.9132 18.211 17.3388C18.214 17.3358 18.971 14.3617 18.971 14.3617H20.1917C20.1917 14.3617 19.5634 16.8929 19.339 17.7337C19.1415 18.4787 18.953 19.0083 18.3127 19.3973C17.9088 19.6426 17.4151 19.7234 16.5833 19.7234C16.0956 19.7234 15.2429 19.6306 14.9557 19.107C14.8659 18.9395 14.827 18.745 14.83 18.5056C14.833 18.1885 15.0245 17.4495 15.0245 17.4495L15.8054 14.3617H17.3134C17.3134 14.3617 16.5055 17.0665 16.32 18.0987C16.315 18.1238 16.3121 18.151 16.3095 18.1749L16.3081 18.1885C16.2871 18.5804 16.6073 18.8198 16.9842 18.8198C17.2386 18.8198 17.5138 18.733 17.6934 18.5505ZM24.0694 16.0881C24.3745 15.8816 24.8174 15.8338 25.0657 15.9834C25.311 16.13 25.2662 16.4142 24.964 16.6207C24.6648 16.8271 24.216 16.869 23.9736 16.7254C23.7253 16.5728 23.7642 16.2886 24.0694 16.0881ZM41.7432 18.5176L42.6408 16.9468L43.9364 16.6596L40.7529 22.0213C40.6063 22.2786 40.322 22.497 39.9151 22.5H39.3406L39.574 21.7819H39.6039C39.6757 21.7819 39.7266 21.7789 39.7655 21.758C39.8014 21.746 39.8283 21.7191 39.8553 21.6772L40.9414 19.9209L40.5913 16.884L41.5428 16.6596L41.7432 18.5176ZM27.205 21.2553L26.8968 21.7909C26.828 21.9106 26.7173 22.0213 26.466 22.0213H26.3104L26.095 22.6915H26.6066C27.208 22.6915 27.4922 22.3624 27.4922 22.3624H29.09L29.3233 21.6473H27.9799L28.1954 21.2553H27.205ZM20.7273 19.7234L21.2688 17.5273C21.3855 17.4764 21.5022 17.4255 21.6099 17.4255C21.8672 17.4255 21.9271 17.6409 21.9121 17.7277C21.9031 17.8294 21.4603 19.7234 21.4603 19.7234H22.5374L22.9144 18.1406C23.07 17.5542 23.1478 17.258 23.0491 17.0156C22.9444 16.7433 22.6781 16.6596 22.4327 16.6596C22.2712 16.6596 21.9749 16.7164 21.7057 16.8391C21.6272 16.8783 21.5508 16.9215 21.4731 16.9655L21.4731 16.9655L21.4214 16.9947L21.4992 16.6566L20.3563 16.8361L19.6172 19.7234H20.7273ZM30.3646 17.5273L29.823 19.7234H28.713L29.452 16.8361L30.595 16.6566L30.5172 16.9947L30.5688 16.9655L30.5688 16.9655C30.6465 16.9215 30.723 16.8783 30.8014 16.8391C31.0707 16.7164 31.3669 16.6596 31.5285 16.6596C31.7738 16.6596 32.0401 16.7433 32.1448 17.0156C32.2436 17.258 32.1658 17.5542 32.0102 18.1406L31.6332 19.7234H30.5561C30.5561 19.7234 30.9989 17.8294 31.0079 17.7277C31.0228 17.6409 30.963 17.4255 30.7057 17.4255C30.5979 17.4255 30.4813 17.4764 30.3646 17.5273ZM23.2555 19.7234H24.3656L24.94 17.4255L23.8031 17.5931L23.2555 19.7234ZM35.6395 14.3617C36.3965 14.3647 37.0517 14.3737 37.3689 14.8374C37.4946 15.011 37.5634 15.2802 37.5574 15.5046C37.5514 15.6752 37.5215 15.8457 37.4826 15.9894C37.333 16.5758 36.9919 17.0096 36.5431 17.3358C35.9028 17.7965 35.1638 17.8085 34.3918 17.8085H34.1644L33.6558 19.7234H32.447L33.8443 14.3617H35.083H35.6395ZM36.0793 16.0402C35.9926 16.3963 35.7502 16.6985 35.451 16.8421C35.2309 16.9508 34.9661 16.9491 34.6941 16.9473L34.694 16.9473C34.6592 16.947 34.6243 16.9468 34.5893 16.9468H34.3948L34.8795 15.1277H35.3553C35.9297 15.1277 36.1092 15.4927 36.1092 15.7979C36.1092 15.8757 36.1003 15.9594 36.0793 16.0402ZM31.9653 24.5435C31.9833 24.4867 32.0401 24.3191 32.0401 24.3191H32.809L32.7253 24.6752C32.7241 24.6792 32.7228 24.6835 32.7214 24.688C32.6759 24.8394 32.5444 25.2766 32.0012 25.2766H31.3938C31.3938 25.2766 31.3938 25.5638 31.3968 25.7164C31.3969 25.7218 31.397 25.7272 31.3971 25.7325C31.3996 25.8638 31.4012 25.9468 31.5853 25.9468H32.2286L32.0102 26.617H31.2951C30.6698 26.617 30.5261 26.3747 30.5321 26.234V24.3191H31.3938V24.7021H31.714C31.8875 24.7021 31.9503 24.5914 31.9653 24.5435Z" fill="#FEFEFE"/>
<path fill-rule="evenodd" clip-rule="evenodd" d="M27.3667 16.6595C27.7976 16.6595 28.2135 16.7523 28.4408 17.0365C28.5904 17.225 28.7041 17.5302 28.5276 18.1885C28.4738 18.3859 28.3182 18.8677 28.004 19.1908C27.5911 19.5887 27.0585 19.7234 26.5409 19.7234C26.3375 19.7234 26.0263 19.6994 25.8109 19.6097C25.1107 19.3404 25.2454 18.6163 25.3531 18.2124C25.4608 17.8175 25.6343 17.4076 25.9904 17.1024C26.4871 16.6835 27.1064 16.6595 27.3667 16.6595ZM38.9428 16.9228C38.9548 16.869 38.9638 16.8391 38.9638 16.8391L40.1067 16.6595L39.3348 19.7234H38.2248C38.2248 19.7234 38.2696 19.5528 38.2936 19.4571C38.0991 19.6067 37.8567 19.7234 37.5545 19.7234C37.3541 19.7234 36.5253 19.7234 36.5253 18.7659C36.5253 18.6103 36.5492 18.38 36.5881 18.2333C36.6898 17.8414 36.8634 17.4315 37.2105 17.1323C37.6024 16.7972 37.9375 16.6595 38.3205 16.6595C38.6287 16.6595 38.8232 16.7972 38.9428 16.9228ZM30.9362 21.7699C30.9362 21.7699 31.1606 21.2553 32.3125 21.2553H33.626L33.0246 23.0984L33.0208 23.1101C32.9176 23.4294 32.6996 24.1037 31.5885 24.1037H30.2271L29.6825 25.7523C29.6825 25.7523 29.6586 25.851 29.7783 25.851H30.1523L29.9069 26.617H29.3564C28.752 26.617 28.6234 26.3597 28.6174 26.1443C28.6144 26.0515 28.6353 25.9677 28.6533 25.9139L30.1672 21.2553H31.0948L30.9362 21.7699ZM30.3767 23.5532H31.9086L32.0702 23.0894H30.5353L30.3767 23.5532ZM32.3095 22.4192C32.3095 22.4192 31.5346 22.4102 31.4119 22.4341C30.8614 22.5269 30.631 22.8231 30.631 22.8231L30.8913 22.0212H32.4382L32.3095 22.4192ZM37.8837 19.0472C37.8358 19.0472 37.5486 19.0472 37.5545 18.73C37.5575 18.5774 37.5964 18.4009 37.6503 18.2034C37.7819 17.7367 37.9555 17.3298 38.4162 17.3298C38.7783 17.3298 38.7693 17.62 38.6167 18.1974C38.5718 18.365 38.4462 18.6642 38.3504 18.8108C38.2068 19.0232 38.0452 19.0472 37.8837 19.0472ZM26.6486 19.0442C26.6008 19.0442 26.3135 19.0442 26.3195 18.73C26.3225 18.5744 26.3644 18.371 26.4152 18.2004C26.5439 17.7636 26.7204 17.3298 27.1812 17.3298C27.5402 17.3298 27.5343 17.617 27.3817 18.1974C27.3368 18.362 27.2111 18.6642 27.1124 18.8108C26.9718 19.0232 26.8102 19.0472 26.6486 19.0442ZM25.9784 23.5532L26.2028 22.874H29.0542L28.8268 23.5532H27.5133L27.3188 24.1426H28.6563L28.4259 24.8487H27.0885L26.8072 25.7164C26.8072 25.7164 26.7563 25.851 26.9478 25.851H27.8514L27.6031 26.617H26.3554C25.7331 26.617 25.7361 26.2819 25.7899 26.1143L26.1998 24.8607H25.5535L25.7869 24.1426H26.4362L26.6277 23.5532H25.9784ZM40.6423 23.4873L40.8727 22.7872H37.7819L37.5545 23.4873H38.4821L38.2936 24.0588H37.3511L37.1476 24.6812H37.9764L37.2404 25.6476C37.1805 25.7343 37.0549 25.851 36.8514 25.851H36.4774L36.5522 25.6296H36.2321L37.4109 22.0212H37.8298L37.9615 21.6233V22.0212C37.9615 22.3534 38.0572 22.5 38.5898 22.5H38.9548L39.1882 21.7849H39.0176C38.9039 21.7849 38.8501 21.749 38.8591 21.6772V21.2553H37.9016C37.001 21.2553 36.4445 21.2972 36.2231 21.357C35.9538 21.4258 35.6037 21.6293 35.6037 21.6293L35.7234 21.2553H34.7301L33.3029 25.6386H33.0904L32.8451 26.3806H35.0472L34.9694 26.617H35.9119L35.9867 26.3806H36.2949L36.2141 26.617H36.995C37.1955 26.617 37.3541 26.5721 37.4887 26.4973C37.6264 26.4195 37.7371 26.3118 37.8298 26.1861L38.4103 25.4172L38.497 26.225C38.521 26.3716 38.5778 26.617 39.1792 26.617H39.616L39.8674 25.851H39.5831C39.3797 25.851 39.3378 25.7014 39.3258 25.6236L39.2241 24.8397H38.7543L38.9458 24.6812H40.2504L40.4538 24.0588H39.239L39.4335 23.4873H40.6423ZM36.4804 22.0212H35.4841L35.1849 22.9248C35.1849 22.9248 35.4362 22.8052 35.7384 22.7363C35.9149 22.6974 36.268 22.6735 36.268 22.6735L36.4804 22.0212ZM35.3045 25.6386H34.3022L34.5685 24.8218H35.5678L35.3045 25.6386ZM35.3853 24.1037C35.5589 24.0618 35.8222 24.0289 35.8222 24.0289L36.0376 23.3856H35.0353L34.7301 24.3191C34.7301 24.3191 35.0771 24.1905 35.3853 24.1037Z" fill="#FEFEFE"/>
</svg>
