<svg width="58" height="40" viewBox="0 0 58 40" fill="none" xmlns="http://www.w3.org/2000/svg">
<rect x="0.5" y="0.5" width="57" height="39" rx="5.5" stroke="#DFDFDF"/>
<path fill-rule="evenodd" clip-rule="evenodd" d="M42 24.6466C42 24.6466 41.1509 24.5793 37.4068 23.3253L37.4068 23.3254C36.7324 23.0997 35.9081 22.7962 34.9879 22.4574C34.489 22.2737 33.9619 22.0796 33.4153 21.8819C34.3496 20.2585 35.095 18.4093 35.5853 16.4007H30.4604V14.5548H36.7386V13.5243H30.4604V10.4469H27.8981C27.4483 10.4469 27.4483 10.8908 27.4483 10.8908V13.5243H21.0987V14.5548H27.4483V16.4007H22.2059V17.4308H32.3738C32.0015 18.7129 31.5022 19.9163 30.9092 21.0098C27.6102 19.9211 24.0893 19.0384 21.8779 19.5816C20.4637 19.9306 19.5527 20.553 19.0168 21.2036C16.5607 24.1922 18.3223 28.7317 23.51 28.7317C26.5772 28.7317 29.5322 27.0209 31.8221 24.2037C35.2372 25.8457 42 28.6649 42 28.6649V28.8353C42 31.1355 40.1375 33 37.8366 33H20.1648C17.8635 33 16 31.1351 16 28.8353V11.1652C16 8.8645 17.8635 7 20.1648 7H37.8366C40.1375 7 42 8.86447 42 11.1652V24.6466ZM19.5192 22.7388C20.1651 22.1335 21.3463 21.838 21.9756 21.7718V21.7718C24.3029 21.5282 26.4578 22.4698 29 23.7853C27.2125 26.2561 24.9364 27.8 22.6593 27.8C18.7414 27.8 17.5828 24.5278 19.5192 22.7388Z" fill="#00AAEE"/>
</svg>
